<svg xmlns="http://www.w3.org/2000/svg" viewBox="0 0 96 96" role="img" aria-labelledby="title">
  <title id="title">ZNS Dental Clinic logo</title>
  <defs>
    <linearGradient id="g" x1="14" y1="10" x2="82" y2="86" gradientUnits="userSpaceOnUse">
      <stop stop-color="#4ca8f5"/>
      <stop offset=".48" stop-color="#18bfd0"/>
      <stop offset="1" stop-color="#42d69c"/>
    </linearGradient>
  </defs>
  <rect width="96" height="96" rx="22" fill="#f4fbfc"/>
  <path d="M48 18c-5.2-5.4-15.2-7.1-22.1-1.7-8 6.3-6.5 18.7-3.5 27.6 2.6 7.7 4.2 15.9 5.2 24 .8 6.8 4.4 11 8.5 10.8 4.3-.2 5.1-5.6 6.1-11.6.9-5.3 2.4-10.4 5.8-10.4s4.9 5.1 5.8 10.4c1 6 1.8 11.4 6.1 11.6 4.1.2 7.7-4 8.5-10.8 1-8.1 2.6-16.3 5.2-24 3-8.9 4.5-21.3-3.5-27.6C63.2 10.9 53.2 12.6 48 18z" fill="url(#g)"/>
  <path d="M31 24c4.6-3.4 10.7-2.4 15.2 2.8.9 1 2.7 1 3.6 0C54.3 21.6 60.4 20.6 65 24" fill="none" stroke="#fff" stroke-width="5" stroke-linecap="round"/>
  <text x="48" y="53" text-anchor="middle" font-family="Arial, Helvetica, sans-serif" font-size="18" font-weight="800" fill="#fff">ZNS</text>
</svg>
