<svg xmlns="http://www.w3.org/2000/svg" viewBox="0 0 220 170" role="img" aria-labelledby="title">
  <title id="title">Friendly tooth mascot</title>
  <defs>
    <linearGradient id="bg" x1="22" y1="20" x2="200" y2="150">
      <stop stop-color="#e1f6ff"/>
      <stop offset="1" stop-color="#dff8ef"/>
    </linearGradient>
    <linearGradient id="shield" x1="132" y1="88" x2="185" y2="145">
      <stop stop-color="#4ca8f5"/>
      <stop offset="1" stop-color="#42d69c"/>
    </linearGradient>
  </defs>
  <rect x="5" y="5" width="210" height="160" rx="18" fill="url(#bg)"/>
  <path d="M90 48c-10.5-12.4-35.4-15-48 2-10.2 13.8-5.2 33.6.3 48.5 3.9 10.5 5.1 22.8 6.5 34 1.1 9.7 6.6 16.1 13 15.8 7-.3 8.4-8.1 10-16.6 1.6-8.6 4.6-17 12.2-17 7.5 0 10.5 8.4 12.1 17 1.6 8.5 3 16.3 10 16.6 6.4.3 11.9-6.1 13-15.8 1.4-11.2 2.6-23.5 6.5-34 5.5-14.9 10.5-34.7.3-48.5-12.5-17-37.4-14.4-48 2z" fill="#fff"/>
  <path d="M57 58c8-6.1 19-4 27 5.2 1.4 1.6 4.8 1.6 6.2 0 8-9.2 19-11.3 27-5.2" fill="none" stroke="#b9edf2" stroke-width="6" stroke-linecap="round"/>
  <circle cx="73" cy="88" r="5" fill="#07384a"/>
  <circle cx="104" cy="88" r="5" fill="#07384a"/>
  <path d="M78 105c8 7 18 7 26 0" fill="none" stroke="#07384a" stroke-width="4" stroke-linecap="round"/>
  <path d="M153 89l31 12v21c0 19-12.7 29.7-31 38-18.3-8.3-31-19-31-38v-21l31-12z" fill="url(#shield)"/>
  <path d="M139 124l10 10 20-24" fill="none" stroke="#fff" stroke-width="7" stroke-linecap="round" stroke-linejoin="round"/>
</svg>
